<svg width="40" height="40" viewBox="0 0 40 40" fill="none" xmlns="http://www.w3.org/2000/svg" role="img" aria-label="Crystal Qualet">
  <defs>
    <linearGradient id="cq-facet-a" x1="6" y1="4" x2="20" y2="20" gradientUnits="userSpaceOnUse">
      <stop stop-color="#9fe6d6"/>
      <stop offset="1" stop-color="#169b88"/>
    </linearGradient>
    <linearGradient id="cq-facet-b" x1="34" y1="6" x2="20" y2="22" gradientUnits="userSpaceOnUse">
      <stop stop-color="#ecd9a6"/>
      <stop offset="1" stop-color="#c8a14e"/>
    </linearGradient>
    <linearGradient id="cq-facet-c" x1="20" y1="20" x2="20" y2="38" gradientUnits="userSpaceOnUse">
      <stop stop-color="#0d7d70"/>
      <stop offset="1" stop-color="#0f635b"/>
    </linearGradient>
  </defs>
  <path d="M11 5h18l5 9-14 22L6 14 11 5Z" fill="#11403d"/>
  <path d="M11 5 6 14h14L11 5Z" fill="url(#cq-facet-a)"/>
  <path d="M29 5l5 9H20L29 5Z" fill="url(#cq-facet-b)"/>
  <path d="M6 14h14l-2 22L6 14Z" fill="url(#cq-facet-c)"/>
  <path d="M34 14H20l2 22 12-22Z" fill="#0a4f48"/>
  <path d="M20 5v9m0 0L11 5m9 9 9-9M6 14h28M20 14l-2 22m2-22 2 22" stroke="#eafaf5" stroke-width="0.9" stroke-opacity="0.5" stroke-linejoin="round"/>
</svg>
