<svg width="1200" height="630" viewBox="0 0 1200 630" fill="none" xmlns="http://www.w3.org/2000/svg" role="img" aria-label="Crystal Qualet Co., Ltd.">
  <rect width="1200" height="630" fill="#111827"/>
  <rect x="700" y="-80" width="520" height="520" rx="260" fill="#dc2626" fill-opacity="0.12"/>
  <rect x="-60" y="360" width="360" height="360" rx="180" fill="#dc2626" fill-opacity="0.08"/>

  <g transform="translate(72 145)">
    <path d="M88 0h144l48 84-120 204L40 84 88 0Z" fill="#450a0a"/>
    <path d="M88 0 40 84h114L88 0Z" fill="#ef4444"/>
    <path d="M232 0l48 84H154L232 0Z" fill="#fca5a5"/>
    <path d="M40 84h114l-18 204L40 84Z" fill="#b91c1c"/>
    <path d="M280 84H154l-18 204 144-204Z" fill="#991b1b"/>
    <path d="M154 0v84m0 0L88 0m66 84 78-84M40 84h240M154 84l-18 204m18-204 18 204" stroke="#fff" stroke-width="2" stroke-opacity="0.35" stroke-linejoin="round"/>
  </g>

  <text x="390" y="248" font-family="Arial, Helvetica, sans-serif" font-size="72" font-weight="700" fill="#ffffff" letter-spacing="2">Crystal Qualet</text>
  <text x="392" y="298" font-family="Arial, Helvetica, sans-serif" font-size="24" font-weight="600" fill="#fca5a5" letter-spacing="6">SKINCARE &amp; DISTRIBUTION</text>
  <rect x="392" y="330" width="640" height="3" rx="1.5" fill="#dc2626"/>
  <text x="392" y="392" font-family="Arial, Helvetica, sans-serif" font-size="32" font-weight="500" fill="#f3f4f6">Premium skincare &amp; online distribution</text>
  <text x="392" y="438" font-family="Arial, Helvetica, sans-serif" font-size="24" fill="#9ca3af">Shopee · Lazada · TikTok Shop</text>
</svg>
